#!OML:ASF X:\für Bonn\!DataBase\2005_08_12_Daniel\c3d\Daniel.ASF
:FULLY-SPECIFIED
:DEGREES
97
root 16.8731 20.6996 0.599713 -19.6108 81.6348 -377.82
lowerback 21.0018 0.0410352 5.05922
upperback 0.953912 1.08396 -2.52434
thorax -10.6108 0.227209 -6.0454
lowerneck 11.2343 2.54025 -6.93722
upperneck 10.0271 3.06619 0.90748
head 1.178 1.47847 1.37799
rclavicle -3.4191e-014 4.77083e-015
rhumerus 26.7223 31.1286 -76.0861
rradius 78.3303
rwrist -2.02744
rhand -25.571 23.0148
rfingers 7.12502
rthumb 0.960073 -6.96278
lclavicle -3.4191e-014 4.77083e-015
lhumerus 22.7585 -29.3726 69.8476
lradius 91.9397
lwrist 17.2834
lhand -12.1375 -14.3659
lfingers 7.12502
lthumb 13.9245 15.1478
rfemur -16.585 -6.482 24.0345
rtibia 67.9512
rfoot 16.8405 4.50846
rtoes -15.6865
lfemur -12.5527 8.44198 -16.4908
ltibia 74.114
lfoot 3.66749 -4.64821
ltoes -8.61693
98
root 17.0642 20.6882 0.607988 -19.6701 81.7873 -377.459
lowerback 21.7878 -0.0254825 4.95553
upperback 1.28688 1.02302 -2.51032
thorax -10.6799 0.216896 -5.97234
lowerneck 10.9874 2.46901 -6.85584
upperneck 10.1777 3.00263 0.882848
head 1.2699 1.44553 1.36313
rclavicle -1.68967e-015 -1.59028e-014
rhumerus 26.1612 30.9474 -76.4144
rradius 76.9053
rwrist -1.64199
rhand -25.4681 22.4507
rfingers 7.12502
rthumb 1.0595 -7.52642
lclavicle -1.68967e-015 -1.59028e-014
lhumerus 22.3583 -29.2771 70.4821
lradius 90.2254
lwrist 16.7562
lhand -11.6036 -13.8321
lfingers 7.12502
lthumb 14.4389 15.6456
rfemur -17.1912 -6.70505 24.068
rtibia 67.291
rfoot 16.4478 4.47551
rtoes -15.3925
lfemur -13.1982 8.75078 -16.4557
ltibia 73.7587
lfoot 4.30026 -4.63335
ltoes -8.3126
99
root 17.2588 20.6697 0.6164 -19.6807 81.9306 -377.051
lowerback 22.5831 -0.0913188 4.86821
upperback 1.61618 0.967506 -2.502
thorax -10.7531 0.208584 -5.91648
lowerneck 10.761 2.40329 -6.80797
upperneck 10.2938 2.93715 0.89765
head 1.34652 1.41107 1.36614
rclavicle 2.48481e-014 -5.56597e-015
rhumerus 25.5314 30.7529 -76.8716
rradius 75.2582
rwrist -1.20247
rhand -25.2408 21.8808
rfingers 7.12502
rthumb 1.27904 -8.09511
lclavicle 2.48481e-014 -5.56597e-015
lhumerus 21.9598 -29.1909 71.0859
lradius 88.3175
lwrist 16.0289
lhand -11.1894 -13.3007
lfingers 7.12502
lthumb 14.8381 16.148
rfemur -17.7651 -6.83265 24.1246
rtibia 66.3741
rfoot 15.9526 4.48662
rtoes -15.7267
lfemur -13.8178 9.07974 -16.4269
ltibia 73.2377
lfoot 4.90056 -4.75359
ltoes -8.36488
100
root 17.456 20.641 0.624511 -19.5384 82.0918 -376.524
lowerback 23.3509 -0.153815 4.77379
upperback 1.93398 0.913417 -2.49525
thorax -10.8201 0.201646 -5.85718
lowerneck 10.5086 2.3356 -6.80942
upperneck 10.4306 2.86543 0.940027
head 1.43368 1.37177 1.38741
rclavicle -2.80286e-014 -2.38542e-015
rhumerus 24.9356 30.5394 -77.3416
rradius 73.3437
rwrist -0.695944
rhand -24.8945 21.3592
rfingers 7.12502
rthumb 1.61347 -8.61449
lclavicle -2.80286e-014 -2.38542e-015
lhumerus 21.6516 -29.1242 71.6238
lradius 86.1532
lwrist 15.0585
lhand -11.0154 -12.8828
lfingers 7.12502
lthumb 15.0056 16.5535
rfemur -18.3172 -6.90972 24.1549
rtibia 65.247
rfoot 15.5127 4.38516
rtoes -16.293
lfemur -14.4618 9.4071 -16.4467
ltibia 72.569
lfoot 5.38324 -5.06149
ltoes -9.18951
101
root 17.6558 20.6009 0.63301 -19.6375 82.2387 -376.253
lowerback 24.0939 -0.226563 4.71341
upperback 2.24348 0.855954 -2.47006
thorax -10.8793 0.192471 -5.79413
lowerneck 10.2654 2.28755 -6.83256
upperneck 10.5619 2.81722 0.978541
head 1.51693 1.34364 1.41041
rclavicle -1.03368e-014 1.74931e-014
rhumerus 24.4134 30.3807 -77.7517
rradius 71.1928
rwrist -0.159933
rhand -24.4621 20.7625
rfingers 7.12502
rthumb 2.03112 -9.20761
lclavicle -1.03368e-014 1.74931e-014
lhumerus 21.3412 -29.0351 72.1798
lradius 83.8116
lwrist 13.8642
lhand -11.0297 -12.4817
lfingers 7.12502
lthumb 14.9919 16.9556
rfemur -18.7949 -6.90709 24.2367
rtibia 63.9569
rfoot 15.0579 4.08493
rtoes -16.7024
lfemur -15.0866 9.66737 -16.4629
ltibia 71.7332
lfoot 5.74816 -5.54776
ltoes -10.0663
102
root 17.8579 20.5501 0.641084 -19.6922 82.3751 -375.955
lowerback 24.7949 -0.289937 4.66661
upperback 2.5597 0.812501 -2.45706
thorax -10.9022 0.191163 -5.75496
lowerneck 9.99917 2.22896 -6.87197
upperneck 10.6865 2.75139 1.0623
head 1.60199 1.30632 1.45161
rclavicle -2.24627e-014 1.74931e-014
rhumerus 23.9066 30.1769 -78.1981
rradius 68.9096
rwrist 0.513029
rhand -23.8929 20.0759
rfingers 7.12502
rthumb 2.58077 -9.88823
lclavicle -2.24627e-014 1.74931e-014
lhumerus 21.0451 -28.9829 72.6935
lradius 81.3707
lwrist 12.4479
lhand -11.1306 -12.0845
lfingers 7.12502
lthumb 14.8947 17.3601
rfemur -19.2166 -6.85481 24.306
rtibia 62.5492
rfoot 14.6404 3.71358
rtoes -17.0477
lfemur -15.6741 9.79096 -16.5466
ltibia 70.7104
lfoot 5.87767 -6.06477
ltoes -11.4212
103
root 18.0625 20.4912 0.64938 -19.5646 82.5309 -375.517
lowerback 25.4415 -0.358116 4.5797
upperback 2.8549 0.750938 -2.42792
thorax -10.9195 0.183239 -5.66583
lowerneck 9.75227 2.19645 -6.95738
upperneck 10.7826 2.7144 1.13758
head 1.67374 1.28214 1.49682
rclavicle -1.72943e-014 -6.36111e-015
rhumerus 23.3484 29.9997 -78.6848
rradius 66.6767
rwrist 1.41189
rhand -23.1917 19.2101
rfingers 7.12502
rthumb 3.25793 -10.7447
lclavicle -1.72943e-014 -6.36111e-015
lhumerus 20.7109 -28.9017 73.1978
lradius 78.9162
lwrist 11.1116
lhand -11.179 -11.5896
lfingers 7.12502
lthumb 14.848 17.8584
rfemur -19.6132 -6.7664 24.3312
rtibia 61.0353
rfoot 14.2136 3.34916
rtoes -17.4557
lfemur -16.2006 9.7783 -16.7194
ltibia 69.4726
lfoot 5.75198 -6.56401
ltoes -13.1979
104
root 18.2671 20.4275 0.656386 -19.6115 82.6888 -375.27
lowerback 26.0898 -0.432938 4.5661
upperback 3.14161 0.699208 -2.4232
thorax -10.9415 0.176034 -5.65037
lowerneck 9.52732 2.15079 -6.96305
upperneck 10.8808 2.6653 1.21209
head 1.7439 1.25505 1.52788
rclavicle 1.33186e-014 -1.98785e-014
rhumerus 22.7478 29.7553 -79.1934
rradius 64.5293
rwrist 2.42611
rhand -22.444 18.261
rfingers 7.12502
rthumb 3.98006 -11.6816
lclavicle 1.33186e-014 -1.98785e-014
lhumerus 20.3078 -28.871 73.7411
lradius 76.4744
lwrist 9.71584
lhand -11.1412 -11.0996
lfingers 7.12502
lthumb 14.8845 18.3457
rfemur -19.975 -6.67734 24.3596
rtibia 59.4212
rfoot 13.8276 3.08592
rtoes -18.0985
lfemur -16.6617 9.72044 -16.875
ltibia 68.0533
lfoot 5.51875 -7.09447
ltoes -14.4978
105
root 18.4707 20.3505 0.662857 -19.5864 82.8375 -374.977
lowerback 26.737 -0.504007 4.52682
upperback 3.40373 0.648167 -2.39101
thorax -10.9885 0.169333 -5.58862
lowerneck 9.40182 2.10843 -7.00666
upperneck 10.8886 2.61084 1.23306
head 1.7689 1.22497 1.54538
rclavicle 3.77691e-015 -2.38542e-014
rhumerus 22.132 29.5146 -79.7364
rradius 62.3685
rwrist 3.60932
rhand -21.7502 17.3855
rfingers 7.12502
rthumb 4.65002 -12.5434
lclavicle 3.77691e-015 -2.38542e-014
lhumerus 19.813 -28.8043 74.3521
lradius 74.1037
lwrist 8.48909
lhand -10.9713 -10.5025
lfingers 7.12502
lthumb 15.0481 18.9306
rfemur -20.2676 -6.50299 24.3691
rtibia 57.6644
rfoot 13.4596 2.73832
rtoes -18.5357
lfemur -17.1256 9.60267 -17.0349
ltibia 66.5459
lfoot 5.21213 -7.54703
ltoes -14.5471
106
root 18.6738 20.2634 0.669169 -19.532 82.9869 -374.708
lowerback 27.3555 -0.578453 4.49144
upperback 3.62843 0.590783 -2.36324
thorax -11.0609 0.156955 -5.5312
lowerneck 9.37137 2.08323 -7.03001
upperneck 10.8354 2.57046 1.27399
head 1.75741 1.20398 1.56326
rclavicle -2.26615e-014 2.22639e-014
rhumerus 21.5261 29.298 -80.2492
rradius 60.2075
rwrist 4.78646
rhand -21.1526 16.6643
rfingers 7.12502
rthumb 5.22705 -13.2512
lclavicle -2.26615e-014 2.22639e-014
lhumerus 19.1289 -28.6781 75.0931
lradius 71.881
lwrist 7.31567
lhand -10.5606 -9.77124
lfingers 7.12502
lthumb 15.4438 19.6318
rfemur -20.5782 -6.20314 24.3732
rtibia 55.8198
rfoot 13.0329 2.34679
rtoes -19.1074
lfemur -17.5841 9.42662 -17.195
ltibia 64.9486
lfoot 4.85348 -7.9158
ltoes -13.3644
107
root 18.8754 20.1592 0.674624 -19.4837 83.1351 -374.457
lowerback 27.9915 -0.651021 4.47223
upperback 3.83269 0.541722 -2.3328
thorax -11.1617 0.146295 -5.48352
lowerneck 9.3552 2.05213 -7.01981
upperneck 10.7768 2.52715 1.26774
head 1.74272 1.18254 1.55963
rclavicle -1.76918e-014 1.74931e-014
rhumerus 20.883 29.1102 -80.71
rradius 58.0141
rwrist 6.00039
rhand -20.895 16.2048
rfingers 7.12502
rthumb 5.47576 -13.7045
lclavicle -1.76918e-014 1.74931e-014
lhumerus 18.2624 -28.5094 75.969
lradius 69.8294
lwrist 6.18115
lhand -9.96112 -8.98265
lfingers 7.12502
lthumb 16.0211 20.3749
rfemur -20.8648 -5.81249 24.3504
rtibia 53.8909
rfoot 12.5965 1.90571
rtoes -19.5657
lfemur -18.0088 9.19395 -17.3459
ltibia 63.2979
lfoot 4.31157 -8.21662
ltoes -11.9485
108
root 19.078 20.0468 0.680373 -19.5077 83.2779 -374.312
lowerback 28.6237 -0.722493 4.46252
upperback 4.00225 0.496553 -2.29481
thorax -11.2972 0.134548 -5.43408
lowerneck 9.33836 2.01873 -7.02035
upperneck 10.7349 2.48104 1.26366
head 1.73368 1.15932 1.55889
rclavicle 1.96797e-014 -2.94201e-014
rhumerus 20.1782 28.9053 -81.2421
rradius 55.7183
rwrist 7.12528
rhand -20.779 16.1288
rfingers 7.12502
rthumb 5.58773 -13.7775
lclavicle 1.96797e-014 -2.94201e-014
lhumerus 17.2371 -28.2867 76.944
lradius 67.8467
lwrist 5.0939
lhand -9.36846 -8.24514
lfingers 7.12502
lthumb 16.5917 21.0656
rfemur -21.1059 -5.35947 24.3251
rtibia 51.8426
rfoot 12.1907 1.37489
rtoes -19.5949
lfemur -18.4808 8.97785 -17.4876
ltibia 61.6038
lfoot 3.67914 -8.48705
ltoes -11.1395
